<!--?xml version="1.0" standalone="no"?-->
              <svg id="sw-js-blob-svg" viewBox="0 0 100 100" xmlns="http://www.w3.org/2000/svg" version="1.1">
                    <defs> 
                        <linearGradient id="sw-gradient" x1="0" x2="1" y1="1" y2="0">
                            <stop id="stop1" stop-color="rgba(162.405, 42.266, 219.781, 1)" offset="0%"></stop>
                            <stop id="stop2" stop-color="rgba(26, 35, 126, 1)" offset="100%"></stop>
                        </linearGradient>
                    </defs>
                <path fill="url(#sw-gradient)" d="M25.7,-35.2C32.2,-30.6,35.7,-21.7,37.1,-13.1C38.4,-4.5,37.6,3.7,35.9,12.6C34.3,21.4,31.8,30.9,25.7,37.1C19.6,43.3,9.8,46.1,0.3,45.7C-9.2,45.3,-18.4,41.7,-26.2,36C-33.9,30.4,-40.2,22.8,-43,14C-45.9,5.3,-45.2,-4.6,-41.4,-12.5C-37.5,-20.5,-30.6,-26.5,-23.2,-30.9C-15.7,-35.2,-7.9,-38,0.8,-39.1C9.6,-40.3,19.1,-39.9,25.7,-35.2Z" width="100%" height="100%" transform="translate(50 50)" stroke-width="0" style="transition: all 0.3s ease 0s;"></path>
              </svg>